<svg xmlns="http://www.w3.org/2000/svg" xmlns:xlink="http://www.w3.org/1999/xlink" viewBox="0,0,256,256" width="512px" height="512px" fill-rule="nonzero"><defs><linearGradient x1="42.213" y1="17.574" x2="16.119" y2="7.216" gradientUnits="userSpaceOnUse" id="color-1"><stop offset="0" stop-color="#3079d6"></stop><stop offset="1" stop-color="#297cd2"></stop></linearGradient><linearGradient x1="2.9289" y1="2.9289" x2="17.0711" y2="17.0711" gradientUnits="userSpaceOnUse" id="color-2"><stop offset="0" stop-color="#21ad64"></stop><stop offset="1" stop-color="#088242"></stop></linearGradient></defs><g fill="none" fill-rule="nonzero" stroke="none" stroke-width="1" stroke-linecap="butt" stroke-linejoin="miter" stroke-miterlimit="10" stroke-dasharray="" stroke-dashoffset="0" font-family="none" font-weight="none" font-size="none" text-anchor="none" style="mix-blend-mode: normal"><g transform="scale(5.33333,5.33333)"><path d="M44,10v8h-25v-10h23c1.1,0 2,0.9 2,2z" fill="url(#color-1)"></path><path d="M38.161,15c-0.718,0 -1.38,-0.385 -1.736,-1.008l-2.848,-4.985c-0.357,-0.622 -1.02,-1.007 -1.738,-1.007h-11.839v7z" fill="#35c1f1"></path><path d="M24.424,13.992l-2.848,-4.985c-0.356,-0.622 -1.019,-1.007 -1.737,-1.007h-13.839c-1.105,0 -2,0.895 -2,2v28c0,1.1 0.9,2 2,2h36c1.1,0 2,-0.9 2,-2v-21c0,-1.105 -0.895,-2 -2,-2h-15.839c-0.718,0 -1.381,-0.385 -1.737,-1.008z" fill="#50e6ff"></path></g></g><g fill="none" fill-rule="nonzero" stroke="none" stroke-width="1" stroke-linecap="butt" stroke-linejoin="miter" stroke-miterlimit="10" stroke-dasharray="" stroke-dashoffset="0" font-family="none" font-weight="none" font-size="none" text-anchor="none" style="mix-blend-mode: normal"><g transform="translate(142.33333,158.33333) scale(4.26667,4.26667)" id="overlay"><path transform="translate(10,10)" d="M-10,0c0,-5.52285 4.47715,-10 10,-10c5.52285,0 10,4.47715 10,10c0,5.52285 -4.47715,10 -10,10c-5.52285,0 -10,-4.47715 -10,-10z" fill="url(#color-2)"></path><path d="M10.5,15h-1c-0.276,0 -0.5,-0.224 -0.5,-0.5v-9c0,-0.276 0.224,-0.5 0.5,-0.5h1c0.276,0 0.5,0.224 0.5,0.5v9c0,0.276 -0.224,0.5 -0.5,0.5z" fill="#ffffff"></path><path d="M5,10.5v-1c0,-0.276 0.224,-0.5 0.5,-0.5h9c0.276,0 0.5,0.224 0.5,0.5v1c0,0.276 -0.224,0.5 -0.5,0.5h-9c-0.276,0 -0.5,-0.224 -0.5,-0.5z" fill="#ffffff"></path></g></g></svg>